<?xml version="1.0" encoding="UTF-8"?>
<svg id="Layer_1" data-name="Layer 1" xmlns="http://www.w3.org/2000/svg" viewBox="0 0 196.28 210.44">
  <defs>
    <style>
      .cls-1 {
        fill: #fff;
      }
    </style>
  </defs>
  <g>
    <path class="cls-1" d="M117.01,129c3.12,0,5.65-2.53,5.65-5.65s-2.53-5.65-5.65-5.65-5.65,2.53-5.65,5.65,2.53,5.65,5.65,5.65Z"/>
    <path class="cls-1" d="M151.36,129c3.12,0,5.65-2.53,5.65-5.65s-2.53-5.65-5.65-5.65-5.65,2.53-5.65,5.65,2.53,5.65,5.65,5.65Z"/>
    <path class="cls-1" d="M0,0v113.38c0,53.61,43.94,97.07,98.14,97.07s98.14-43.46,98.14-97.07V0H0ZM186.46,10.49v69.29H9.81V10.49h176.65ZM129.92,119.99c.64,1.91.96,3.89.96,5.89v9.64h6.54v-9.64c0-2,.32-3.99.96-5.89.91-2.73,2.48-5.27,4.54-7.32,3.55-3.54,8.24-5.5,13.22-5.5.33,0,.66.02.99.04,4.83,4.98,7.77,11.52,7.77,18.69,0,15.53-13.79,28.17-30.75,28.17s-30.75-12.64-30.75-28.17c0-7.16,2.94-13.7,7.76-18.68.33-.02.67-.05,1-.05,8.07,0,15.2,5.15,17.76,12.82ZM117.04,102.5c4.89-3.01,10.78-4.78,17.11-4.78s12.2,1.76,17.1,4.77c-4.5.94-8.65,3.16-11.99,6.51-2.16,2.16-3.9,4.75-5.1,7.54-3.09-7.27-9.52-12.46-17.12-14.04ZM165.35,149.96c0,9.27-2.95,18.98-7.94,27.4-14.54,13.03-33.49,21.32-54.36,22.45v-16.06c15.4-1.03,28.14-11.11,32.07-24.53,12.94-.32,24.19-7.01,30.24-16.82v7.56ZM13.37,137.12h79.86v13.94H18.83c-2.21-4.45-4.04-9.11-5.46-13.94ZM93.23,127.3H11.09c-.78-4.54-1.21-9.19-1.25-13.94h83.4v13.94ZM93.23,199.81c-16.67-.9-32.1-6.38-45.04-15.18h45.04v15.18ZM129.75,158.99c-3.69,10.66-14.13,18.59-26.71,19.57v-35.99c5.52,8.85,15.29,15.13,26.71,16.43ZM93.23,103.54H9.81v-13.94h83.42v13.94ZM24.54,160.87h68.7v13.94h-57.06c-4.34-4.23-8.24-8.9-11.63-13.94ZM167.62,166.49c1.88-5.16,2.91-10.73,2.91-16.53v-21.47c0-3.07-.39-6.04-1.1-8.89-.73-3.52-2.05-6.84-3.87-9.87-1.69-2.56-4.04-5.68-6.13-7.51-1.04-.96-2.15-1.86-3.31-2.69-6.1-4.63-13.7-7.39-21.94-7.39-7.6,0-14.67,2.35-20.51,6.36-1.73,1.12-3.35,2.36-4.84,3.74-2.8,2.73-4.41,4.79-5.8,6.99v-19.62h83.42v22.99c0,20.34-7.05,39.05-18.84,53.9Z"/>
  </g>
  <g>
    <path class="cls-1" d="M81.43,69.71h-9.28V31.48l-14.44,38.22h-6.53l-14.24-38.21v38.21h-8.94V20.15h14.16l.08.21,12.51,34.2,12.45-34.41h14.23v49.56Z"/>
    <path class="cls-1" d="M109.5,69.71h-17.94V20.15h19.39c1.86,0,3.72.22,5.53.67,1.83.45,3.48,1.18,4.91,2.19,1.44,1.01,2.62,2.34,3.52,3.94.9,1.61,1.35,3.57,1.35,5.82,0,2.83-.82,5.2-2.43,7.05-1.4,1.6-3.19,2.82-5.34,3.64,2.7.53,4.98,1.72,6.78,3.52,2.03,2.04,3.07,4.79,3.07,8.17,0,2.72-.55,5.04-1.63,6.9-1.08,1.86-2.52,3.37-4.29,4.5-1.75,1.12-3.79,1.94-6.05,2.43-2.25.49-4.56.73-6.87.73ZM100.92,61.74h7.48c1.09,0,2.29-.08,3.55-.24,1.25-.16,2.41-.48,3.46-.97,1.03-.48,1.89-1.19,2.57-2.11.67-.91,1.01-2.14,1.01-3.68,0-2.48-.81-4.15-2.46-5.11-1.69-.98-4.31-1.48-7.78-1.48h-7.83v13.58ZM100.92,40.04h7.41c2.82,0,4.98-.56,6.44-1.66,1.45-1.1,2.15-2.62,2.15-4.65s-.72-3.55-2.19-4.42c-1.51-.89-3.92-1.34-7.16-1.34h-6.65v12.06Z"/>
    <path class="cls-1" d="M170.55,69.71h-34.29V20.15h33.05v8.25h-23.7v11.79h22.45v7.97h-22.45v13.17h24.94v8.39Z"/>
  </g>
</svg>