<?xml version="1.0" standalone="no"?>
<!DOCTYPE svg PUBLIC "-//W3C//DTD SVG 20010904//EN"
 "http://www.w3.org/TR/2001/REC-SVG-20010904/DTD/svg10.dtd">
<svg version="1.0" xmlns="http://www.w3.org/2000/svg"
 width="2878.000000pt" height="944.000000pt" viewBox="0 0 2878.000000 944.000000"
 preserveAspectRatio="xMidYMid meet">

<g transform="translate(0.000000,944.000000) scale(0.100000,-0.100000)"
fill="#000000" stroke="none">
<path d="M163 6143 c4 -2133 0 -1995 63 -2308 162 -808 666 -1534 1382 -1991
397 -254 847 -412 1357 -476 129 -16 551 -16 680 0 628 79 1171 303 1640 677
132 105 381 354 485 485 358 451 572 954 657 1545 15 110 17 290 20 2068 l4
1947 -3146 0 -3146 0 4 -1947z m5972 502 l0 -1110 -2830 0 -2830 0 -3 1100
c-1 605 0 1106 3 1113 3 10 575 12 2832 10 l2828 -3 0 -1110z m-2985 -1650 l0
-225 -1337 2 -1338 3 -3 223 -2 222 1340 0 1340 0 0 -225z m2987 -252 c-3
-367 -8 -507 -21 -602 -29 -216 -80 -422 -152 -620 -48 -132 -179 -395 -256
-517 -66 -103 -168 -243 -168 -230 0 4 11 46 25 94 49 172 55 249 55 762 0
463 -1 478 -24 590 -40 192 -89 302 -197 446 -173 231 -419 386 -714 450 -110
24 -341 24 -450 0 -290 -63 -554 -228 -717 -448 -28 -37 -52 -68 -54 -68 -2 0
-4 140 -4 310 l0 310 1341 0 1341 0 -5 -477z m-1496 202 c46 -8 116 -25 154
-38 75 -26 205 -88 205 -97 0 -4 -22 -12 -49 -19 -187 -48 -378 -205 -470
-389 l-22 -43 -29 56 c-92 175 -281 329 -462 377 -27 7 -48 15 -48 18 0 9 165
85 228 105 140 45 341 57 493 30z m-766 -300 c203 -43 377 -194 445 -388 29
-83 40 -173 40 -349 l0 -158 99 0 99 0 5 208 c3 159 8 220 22 262 79 251 282
416 536 437 l76 6 60 -77 c246 -316 249 -733 8 -1045 -355 -460 -1079 -516
-1503 -117 -134 127 -208 245 -258 413 -22 73 -27 109 -27 208 -1 66 5 147 12
180 30 137 98 274 193 388 36 42 44 47 81 47 23 0 74 -7 112 -15z m-725 -410
l0 -225 -1320 0 c-938 0 -1320 3 -1320 11 0 6 -6 63 -14 127 -8 64 -17 161
-20 215 l-5 97 1339 0 1340 0 0 -225z m0 -760 l0 -225 -1193 0 -1194 0 -13 28
c-62 131 -160 384 -160 413 0 5 525 9 1280 9 l1280 0 0 -225z m365 -24 c94
-128 252 -260 400 -334 81 -40 219 -86 315 -103 l89 -16 -20 -52 c-64 -161
-217 -334 -382 -432 -117 -69 -270 -122 -404 -139 l-53 -7 0 578 c0 317 2 575
4 573 2 -2 25 -33 51 -68z m1935 -321 c-24 -210 -76 -386 -175 -587 -63 -129
-66 -133 -148 -200 -379 -313 -823 -522 -1291 -608 -126 -23 -298 -45 -351
-45 l-25 0 0 260 0 260 34 0 c57 0 193 29 284 61 288 102 516 297 644 554 19
39 41 88 48 110 7 22 15 43 19 47 3 3 50 12 105 18 268 32 492 134 678 309 48
46 110 113 136 148 l47 65 3 -149 c2 -81 -2 -191 -8 -243z m-2300 -415 l0
-225 -919 0 -919 0 -97 108 c-93 103 -265 321 -265 335 0 4 495 7 1100 7
l1100 0 0 -225z m0 -780 l0 -245 -23 0 c-40 0 -270 29 -357 45 -304 57 -648
186 -913 345 -187 112 -258 100 571 100 l722 0 0 -245z"/>
<path d="M1060 6650 l0 -790 140 0 140 0 0 607 c0 333 3 604 6 600 4 -3 107
-275 229 -604 l223 -598 105 -3 105 -3 28 73 c15 40 119 314 231 608 l202 535
1 -607 0 -608 150 0 150 0 0 790 0 790 -228 0 -229 0 -153 -422 c-228 -632
-242 -669 -248 -664 -2 3 -93 247 -202 543 l-197 538 -226 3 -227 2 0 -790z"/>
<path d="M3100 6649 l0 -791 368 4 c336 4 373 6 444 25 247 69 369 228 356
463 -6 103 -29 159 -89 225 -48 52 -103 87 -166 106 -24 7 -43 15 -43 19 0 3
20 16 44 27 84 41 151 119 177 205 18 60 12 188 -11 251 -28 75 -110 164 -183
200 -107 52 -151 57 -539 57 l-358 0 0 -791z m573 542 c127 -12 183 -38 215
-101 38 -75 24 -157 -35 -215 -55 -53 -109 -65 -300 -65 l-163 0 0 188 c0 104
3 192 7 195 9 10 158 8 276 -2z m97 -652 c139 -22 192 -70 198 -180 5 -87 -10
-131 -61 -174 -64 -55 -116 -67 -329 -72 l-188 -5 0 221 0 221 158 0 c86 0
186 -5 222 -11z"/>
<path d="M4530 6650 l0 -790 545 0 545 0 0 130 0 130 -395 0 -395 0 0 215 0
215 355 0 355 0 0 125 0 125 -355 0 -355 0 0 190 0 190 375 0 375 0 0 130 0
130 -525 0 -525 0 0 -790z"/>
<path d="M3830 4298 c-132 -67 -132 -249 0 -315 24 -13 60 -23 80 -23 20 0 56
10 80 23 132 66 132 248 0 315 -24 12 -60 22 -80 22 -20 0 -56 -10 -80 -22z"/>
<path d="M4932 4299 c-134 -67 -132 -259 2 -320 55 -25 102 -24 156 4 132 66
132 248 0 315 -56 28 -103 28 -158 1z"/>
<path d="M12245 6464 c-190 -31 -320 -116 -383 -252 -24 -50 -27 -70 -27 -157
0 -93 2 -105 33 -167 58 -118 123 -161 367 -244 145 -50 202 -83 243 -144 20
-30 23 -45 20 -97 -5 -74 -37 -122 -109 -163 -39 -22 -56 -25 -139 -25 -81 1
-103 4 -152 27 -32 15 -79 47 -106 72 l-49 46 -88 -82 -88 -82 44 -38 c195
-168 552 -195 758 -57 68 45 123 114 154 192 30 77 30 243 0 309 -53 117 -160
189 -395 267 -69 23 -143 54 -166 68 -115 75 -107 226 17 296 106 60 247 45
357 -40 54 -40 46 -44 146 69 l60 67 -63 41 c-86 55 -200 90 -313 95 -50 2
-104 1 -121 -1z"/>
<path d="M22565 6464 c-190 -31 -320 -116 -383 -252 -24 -50 -27 -70 -27 -157
0 -93 2 -105 33 -167 58 -118 123 -161 367 -244 145 -50 202 -83 243 -144 20
-30 23 -45 20 -97 -5 -74 -37 -122 -109 -163 -39 -22 -56 -25 -139 -25 -81 1
-103 4 -152 27 -32 15 -79 47 -106 72 l-49 46 -88 -82 -88 -82 44 -38 c135
-116 360 -170 558 -134 251 45 397 227 378 468 -15 182 -123 278 -419 377 -69
23 -143 54 -166 68 -115 75 -107 226 17 296 106 60 247 45 357 -40 54 -40 46
-44 146 69 l60 67 -63 41 c-86 55 -200 90 -313 95 -50 2 -104 1 -121 -1z"/>
<path d="M26975 6464 c-190 -31 -320 -116 -383 -252 -24 -50 -27 -70 -27 -157
0 -93 2 -105 33 -167 58 -118 123 -161 367 -244 145 -50 202 -83 243 -144 20
-30 23 -45 20 -97 -5 -74 -37 -122 -109 -163 -39 -22 -56 -25 -139 -25 -81 1
-103 4 -152 27 -32 15 -79 47 -106 72 l-49 46 -88 -82 -88 -82 44 -38 c135
-116 360 -170 558 -134 251 45 397 227 378 468 -15 182 -123 278 -419 377 -69
23 -143 54 -166 68 -115 75 -107 226 17 296 106 60 247 45 357 -40 54 -40 46
-44 146 69 l60 67 -63 41 c-86 55 -200 90 -313 95 -50 2 -104 1 -121 -1z"/>
<path d="M28105 6464 c-190 -31 -320 -116 -383 -252 -24 -50 -27 -70 -27 -157
0 -93 2 -105 33 -167 58 -118 123 -161 367 -244 145 -50 202 -83 243 -144 20
-30 23 -45 20 -97 -5 -74 -37 -122 -109 -163 -39 -22 -56 -25 -139 -25 -81 1
-103 4 -152 27 -32 15 -79 47 -106 72 l-49 46 -88 -82 -88 -82 44 -38 c135
-116 360 -170 558 -134 251 45 397 227 378 468 -15 182 -123 278 -419 377 -69
23 -143 54 -166 68 -115 75 -107 226 17 296 106 60 247 45 357 -40 54 -40 46
-44 146 69 l60 67 -63 41 c-86 55 -200 90 -313 95 -50 2 -104 1 -121 -1z"/>
<path d="M8670 5745 l0 -695 120 0 120 0 2 557 3 557 206 -555 206 -554 85 -3
c74 -2 86 0 93 15 4 10 97 257 207 548 110 292 204 534 209 539 5 6 9 -207 9
-547 l0 -557 120 0 120 0 0 695 0 695 -193 0 -194 0 -178 -495 c-99 -272 -182
-492 -186 -487 -5 5 -289 778 -351 955 l-10 27 -194 0 -194 0 0 -695z"/>
<path d="M10901 6398 c-10 -24 -145 -334 -300 -691 -154 -356 -281 -650 -281
-653 0 -2 61 -3 136 -2 l135 3 62 158 62 157 304 -2 303 -3 62 -155 62 -155
141 -3 141 -3 -298 693 -297 693 -107 3 -106 3 -19 -43z m224 -533 c54 -143
100 -266 103 -272 3 -10 -43 -13 -213 -13 -119 0 -215 4 -213 8 2 5 50 131
108 280 57 149 108 268 111 264 3 -4 50 -124 104 -267z"/>
<path d="M12820 6330 l0 -110 210 0 210 0 0 -585 0 -585 125 0 125 0 0 585 0
585 210 0 210 0 0 110 0 110 -545 0 -545 0 0 -110z"/>
<path d="M14080 5745 l0 -695 480 0 480 0 0 110 0 110 -355 0 -355 0 0 200 0
200 320 0 320 0 0 100 0 100 -320 0 -320 0 0 175 0 175 335 0 335 0 0 110 0
110 -460 0 -460 0 0 -695z"/>
<path d="M15280 5746 l0 -696 125 0 125 0 0 295 0 296 92 -3 92 -3 159 -292
159 -293 149 0 148 0 -175 291 c-96 160 -179 299 -184 309 -8 15 -3 20 43 35
148 48 239 154 255 298 25 221 -79 370 -303 433 -49 14 -119 18 -372 21 l-313
5 0 -696z m643 465 c84 -41 121 -118 103 -216 -9 -47 -60 -103 -116 -129 -38
-17 -72 -21 -212 -24 l-168 -4 0 202 0 202 173 -4 c156 -3 177 -6 220 -27z"/>
<path d="M16970 5745 l0 -695 125 0 125 0 0 695 0 695 -125 0 -125 0 0 -695z"/>
<path d="M17530 5745 l0 -695 125 0 125 0 2 537 3 537 329 -537 329 -537 154
0 153 0 0 695 0 695 -120 0 -120 0 -2 -521 -3 -522 -321 519 -322 519 -166 3
-166 2 0 -695z"/>
<path d="M19520 5744 l0 -696 323 5 c342 5 377 9 484 57 120 55 193 150 213
277 19 122 -10 221 -87 295 -40 39 -134 88 -169 88 -40 0 -33 13 24 40 63 30
135 101 159 158 26 59 23 195 -5 257 -29 63 -93 129 -155 162 -87 44 -172 53
-493 53 l-294 0 0 -696z m634 466 c61 -32 86 -75 86 -150 0 -38 -6 -65 -21
-89 -50 -82 -108 -101 -306 -101 l-143 0 0 186 0 186 168 -3 c155 -4 171 -6
216 -29z m48 -583 c69 -34 98 -83 98 -165 0 -93 -33 -142 -125 -184 -45 -20
-69 -23 -227 -26 l-178 -4 0 207 0 207 188 -3 c181 -4 189 -5 244 -32z"/>
<path d="M20783 5943 c4 -547 3 -542 67 -662 45 -85 129 -165 215 -206 105
-50 148 -59 280 -59 103 0 130 4 193 26 170 61 281 175 338 348 16 49 18 106
22 553 l3 497 -125 0 -125 0 -3 -493 -3 -492 -33 -67 c-56 -114 -154 -165
-302 -156 -95 6 -168 42 -216 108 -62 85 -64 105 -64 628 l0 472 -126 0 -125
0 4 -497z"/>
<path d="M23320 5745 l0 -695 125 0 125 0 0 695 0 695 -125 0 -125 0 0 -695z"/>
<path d="M23870 5745 l0 -695 125 0 125 0 2 537 3 537 329 -537 329 -537 154
0 153 0 0 695 0 695 -120 0 -120 0 -2 -521 -3 -522 -321 519 -322 519 -166 3
-166 2 0 -695z"/>
<path d="M25410 5745 l0 -695 480 0 480 0 0 110 0 110 -355 0 -355 0 0 200 0
200 320 0 320 0 0 100 0 100 -320 0 -320 0 0 175 0 175 335 0 335 0 0 110 0
110 -460 0 -460 0 0 -695z"/>
<path d="M24785 4324 c-190 -31 -320 -116 -383 -252 -24 -50 -27 -70 -27 -157
0 -93 2 -105 33 -167 58 -118 123 -161 367 -244 145 -50 202 -83 243 -144 20
-30 23 -45 20 -97 -5 -74 -37 -122 -109 -163 -39 -22 -56 -25 -139 -25 -81 1
-103 4 -152 27 -32 15 -79 47 -106 72 l-49 46 -88 -82 -88 -82 44 -38 c135
-116 360 -170 558 -134 251 45 397 227 378 468 -15 182 -123 278 -419 377 -69
23 -143 54 -166 68 -115 75 -107 226 17 296 106 60 247 45 357 -40 54 -40 46
-44 146 69 l60 67 -63 41 c-86 55 -200 90 -313 95 -50 2 -104 1 -121 -1z"/>
<path d="M8670 3605 l0 -695 480 0 480 0 0 110 0 110 -355 0 -355 0 0 200 0
200 320 0 320 0 0 100 0 100 -320 0 -320 0 0 175 0 175 335 0 335 0 0 110 0
110 -460 0 -460 0 0 -695z"/>
<path d="M9910 3605 l0 -695 125 0 125 0 2 537 3 537 329 -537 329 -537 154 0
153 0 0 695 0 695 -120 0 -120 0 -2 -521 -3 -522 -321 519 -322 519 -166 3
-166 2 0 -695z"/>
<path d="M11340 4190 l0 -110 210 0 210 0 0 -585 0 -585 125 0 125 0 0 585 0
585 210 0 210 0 0 110 0 110 -545 0 -545 0 0 -110z"/>
<path d="M12630 3606 l0 -696 125 0 125 0 0 295 0 296 92 -3 92 -3 159 -292
159 -293 149 0 148 0 -175 291 c-96 160 -179 299 -184 309 -8 15 -3 20 43 35
148 48 239 154 255 298 25 221 -79 370 -303 433 -49 14 -119 18 -372 21 l-313
5 0 -696z m643 465 c84 -41 121 -118 103 -216 -9 -47 -60 -103 -116 -129 -38
-17 -72 -21 -212 -24 l-168 -4 0 202 0 202 173 -4 c156 -3 177 -6 220 -27z"/>
<path d="M13910 3605 l0 -695 480 0 480 0 0 110 0 110 -355 0 -355 0 0 200 0
200 320 0 320 0 0 100 0 100 -320 0 -320 0 0 175 0 175 335 0 335 0 0 110 0
110 -460 0 -460 0 0 -695z"/>
<path d="M15140 3606 l0 -696 125 0 125 0 0 289 0 288 173 6 c110 4 194 11
232 22 189 51 289 150 316 313 23 137 -17 269 -104 349 -109 101 -172 114
-559 120 l-308 5 0 -696z m561 484 c108 -21 169 -90 169 -192 0 -64 -22 -112
-70 -149 -52 -42 -134 -59 -282 -59 l-128 0 0 205 0 205 129 0 c70 0 152 -5
182 -10z"/>
<path d="M16380 3606 l0 -696 125 0 125 0 0 295 0 296 92 -3 92 -3 159 -292
159 -293 149 0 148 0 -175 291 c-96 160 -179 299 -184 309 -8 15 -3 20 43 35
148 48 239 154 255 298 25 221 -79 370 -303 433 -49 14 -119 18 -372 21 l-313
5 0 -696z m643 465 c84 -41 121 -118 103 -216 -9 -47 -60 -103 -116 -129 -38
-17 -72 -21 -212 -24 l-168 -4 0 202 0 202 173 -4 c156 -3 177 -6 220 -27z"/>
<path d="M17650 3605 l0 -695 480 0 480 0 0 110 0 110 -355 0 -355 0 0 200 0
200 320 0 320 0 0 100 0 100 -320 0 -320 0 0 175 0 175 335 0 335 0 0 110 0
110 -460 0 -460 0 0 -695z"/>
<path d="M18890 3605 l0 -695 125 0 125 0 2 537 3 537 329 -537 329 -537 154
0 153 0 0 695 0 695 -120 0 -120 0 -2 -521 -3 -522 -321 519 -322 519 -166 3
-166 2 0 -695z"/>
<path d="M20460 3605 l0 -695 480 0 480 0 0 110 0 110 -355 0 -355 0 0 200 0
200 320 0 320 0 0 100 0 100 -320 0 -320 0 0 175 0 175 335 0 335 0 0 110 0
110 -460 0 -460 0 0 -695z"/>
<path d="M21683 3803 c4 -547 3 -542 67 -662 45 -85 129 -165 215 -206 105
-50 148 -59 280 -59 103 0 130 4 193 26 170 61 281 175 338 348 16 49 18 106
22 553 l3 497 -125 0 -125 0 -3 -493 -3 -492 -33 -67 c-56 -114 -154 -165
-302 -156 -95 6 -168 42 -216 108 -62 85 -64 105 -64 628 l0 472 -126 0 -125
0 4 -497z"/>
<path d="M23130 3606 l0 -696 125 0 125 0 0 295 0 296 92 -3 92 -3 159 -292
159 -293 149 0 148 0 -175 291 c-96 160 -179 299 -184 309 -8 15 -3 20 43 35
148 48 239 154 255 298 25 221 -79 370 -303 433 -49 14 -119 18 -372 21 l-313
5 0 -696z m643 465 c84 -41 121 -118 103 -216 -9 -47 -60 -103 -116 -129 -38
-17 -72 -21 -212 -24 l-168 -4 0 202 0 202 173 -4 c156 -3 177 -6 220 -27z"/>
<path d="M25570 3605 l0 -695 125 0 125 0 0 310 0 310 325 0 325 0 0 -310 0
-310 120 0 120 0 0 695 0 695 -120 0 -120 0 0 -280 0 -280 -325 0 -325 0 0
280 0 280 -125 0 -125 0 0 -695z"/>
<path d="M27060 3605 l0 -695 125 0 125 0 0 695 0 695 -125 0 -125 0 0 -695z"/>
<path d="M27650 3606 l0 -696 125 0 125 0 0 289 0 288 173 6 c110 4 194 11
232 22 189 51 289 150 316 313 23 137 -17 269 -104 349 -109 101 -172 114
-559 120 l-308 5 0 -696z m561 484 c108 -21 169 -90 169 -192 0 -64 -22 -112
-70 -149 -52 -42 -134 -59 -282 -59 l-128 0 0 205 0 205 129 0 c70 0 152 -5
182 -10z"/>
</g>
</svg>
